name rise31.4854peak64.571fall78.6902.mot
datacolumns 19
datarows 36
range 3.05999700000000 3.11831900000000
endheader
time	ground_force1_vx	ground_force1_vy	ground_force1_vz	ground_force1_px	ground_force1_py	ground_force1_pz	ground_force2_vx	ground_force2_vy	ground_force2_vz	ground_force2_px	ground_force2_py	ground_force2_pz	ground_torque1_x	ground_torque1_y	ground_torque1_z	ground_torque2_x	ground_torque2_y	ground_torque2_z	
3.05999700000000	1.52928700000000	690.05233499999997	40.73898600000000	0.16743800000000	0.00000000000000	0.10446800000000	0.00000000000000	0.00000000000000	0.00000000000000	0.00000000000000	0.00000000000000	0.00000000000000	0.00000000000000	14.12123800000000	0.00000000000000	0.00000000000000	0.00000000000000	0.00000000000000	
3.06165900000000	0.87254600000000	691.30335700000001	40.58282600000000	0.16614300000000	0.00000000000000	0.10441100000000	0.00000000000000	0.00000000000000	0.00000000000000	0.00000000000000	0.00000000000000	0.00000000000000	0.00000000000000	14.17074200000000	0.00000000000000	0.00000000000000	0.00000000000000	0.00000000000000	
3.06332100000000	0.20292900000000	692.59625900000003	40.43093100000000	0.16482900000000	0.00000000000000	0.10435600000000	0.00000000000000	0.00000000000000	0.00000000000000	0.00000000000000	0.00000000000000	0.00000000000000	0.00000000000000	14.22409300000000	0.00000000000000	0.00000000000000	0.00000000000000	0.00000000000000	
3.06499700000000	-0.47948200000000	693.93016399999999	40.28362400000000	0.16349700000000	0.00000000000000	0.10430400000000	0.00000000000000	0.00000000000000	0.00000000000000	0.00000000000000	0.00000000000000	0.00000000000000	0.00000000000000	14.28132700000000	0.00000000000000	0.00000000000000	0.00000000000000	0.00000000000000	
3.06665600000000	-1.17456400000000	695.30423499999995	40.14122900000000	0.16215100000000	0.00000000000000	0.10425400000000	0.00000000000000	0.00000000000000	0.00000000000000	0.00000000000000	0.00000000000000	0.00000000000000	0.00000000000000	14.34247600000000	0.00000000000000	0.00000000000000	0.00000000000000	0.00000000000000	
3.06832100000000	-1.88215200000000	696.71767699999998	40.00408000000000	0.16079100000000	0.00000000000000	0.10420600000000	0.00000000000000	0.00000000000000	0.00000000000000	0.00000000000000	0.00000000000000	0.00000000000000	0.00000000000000	14.40756400000000	0.00000000000000	0.00000000000000	0.00000000000000	0.00000000000000	
3.06999300000000	-2.60204500000000	698.16973599999994	39.87251200000000	0.15942000000000	0.00000000000000	0.10416100000000	0.00000000000000	0.00000000000000	0.00000000000000	0.00000000000000	0.00000000000000	0.00000000000000	0.00000000000000	14.47660800000000	0.00000000000000	0.00000000000000	0.00000000000000	0.00000000000000	
3.07165600000000	-3.33400200000000	699.65970000000004	39.74686500000000	0.15803900000000	0.00000000000000	0.10411900000000	0.00000000000000	0.00000000000000	0.00000000000000	0.00000000000000	0.00000000000000	0.00000000000000	0.00000000000000	14.54962000000000	0.00000000000000	0.00000000000000	0.00000000000000	0.00000000000000	
3.07332200000000	-4.07775000000000	701.18689700000004	39.62748000000000	0.15665200000000	0.00000000000000	0.10407800000000	0.00000000000000	0.00000000000000	0.00000000000000	0.00000000000000	0.00000000000000	0.00000000000000	0.00000000000000	14.62660100000000	0.00000000000000	0.00000000000000	0.00000000000000	0.00000000000000	
3.07499400000000	-4.83297900000000	702.75069199999996	39.51470000000000	0.15525900000000	0.00000000000000	0.10404000000000	0.00000000000000	0.00000000000000	0.00000000000000	0.00000000000000	0.00000000000000	0.00000000000000	0.00000000000000	14.70754500000000	0.00000000000000	0.00000000000000	0.00000000000000	0.00000000000000	
3.07665700000000	-5.59935000000000	704.35049000000004	39.40886800000000	0.15386300000000	0.00000000000000	0.10400500000000	0.00000000000000	0.00000000000000	0.00000000000000	0.00000000000000	0.00000000000000	0.00000000000000	0.00000000000000	14.79243600000000	0.00000000000000	0.00000000000000	0.00000000000000	0.00000000000000	
3.07832400000000	-6.37649200000000	705.98572799999999	39.31032700000000	0.15246600000000	0.00000000000000	0.10397100000000	0.00000000000000	0.00000000000000	0.00000000000000	0.00000000000000	0.00000000000000	0.00000000000000	0.00000000000000	14.88124800000000	0.00000000000000	0.00000000000000	0.00000000000000	0.00000000000000	
3.07999400000000	-7.16400900000000	707.65587600000003	39.21941600000000	0.15107000000000	0.00000000000000	0.10393900000000	0.00000000000000	0.00000000000000	0.00000000000000	0.00000000000000	0.00000000000000	0.00000000000000	0.00000000000000	14.97394800000000	0.00000000000000	0.00000000000000	0.00000000000000	0.00000000000000	
3.08165700000000	-7.96147800000000	709.36043299999994	39.13647500000000	0.14967800000000	0.00000000000000	0.10391000000000	0.00000000000000	0.00000000000000	0.00000000000000	0.00000000000000	0.00000000000000	0.00000000000000	0.00000000000000	15.07049100000000	0.00000000000000	0.00000000000000	0.00000000000000	0.00000000000000	
3.08332200000000	-8.76845200000000	711.09892500000001	39.06183900000000	0.14829000000000	0.00000000000000	0.10388200000000	0.00000000000000	0.00000000000000	0.00000000000000	0.00000000000000	0.00000000000000	0.00000000000000	0.00000000000000	15.17082200000000	0.00000000000000	0.00000000000000	0.00000000000000	0.00000000000000	
3.08501000000000	-9.58446500000000	712.87089500000002	38.99583900000000	0.14691000000000	0.00000000000000	0.10385600000000	0.00000000000000	0.00000000000000	0.00000000000000	0.00000000000000	0.00000000000000	0.00000000000000	0.00000000000000	15.27487900000000	0.00000000000000	0.00000000000000	0.00000000000000	0.00000000000000	
3.08665600000000	-10.40903000000000	714.67590800000005	38.93880100000000	0.14553900000000	0.00000000000000	0.10383200000000	0.00000000000000	0.00000000000000	0.00000000000000	0.00000000000000	0.00000000000000	0.00000000000000	0.00000000000000	15.38258600000000	0.00000000000000	0.00000000000000	0.00000000000000	0.00000000000000	
3.08832100000000	-11.24164400000000	716.51354000000003	38.89104700000000	0.14417900000000	0.00000000000000	0.10381000000000	0.00000000000000	0.00000000000000	0.00000000000000	0.00000000000000	0.00000000000000	0.00000000000000	0.00000000000000	15.49386000000000	0.00000000000000	0.00000000000000	0.00000000000000	0.00000000000000	
3.09000100000000	-12.08178800000000	718.38337400000000	38.85288900000000	0.14283000000000	0.00000000000000	0.10379000000000	0.00000000000000	0.00000000000000	0.00000000000000	0.00000000000000	0.00000000000000	0.00000000000000	0.00000000000000	15.60860700000000	0.00000000000000	0.00000000000000	0.00000000000000	0.00000000000000	
3.09165300000000	-12.92893100000000	720.28499699999998	38.82463500000000	0.14149600000000	0.00000000000000	0.10377100000000	0.00000000000000	0.00000000000000	0.00000000000000	0.00000000000000	0.00000000000000	0.00000000000000	0.00000000000000	15.72672400000000	0.00000000000000	0.00000000000000	0.00000000000000	0.00000000000000	
3.09332600000000	-13.78253100000000	722.21799099999998	38.80658300000000	0.14017700000000	0.00000000000000	0.10375400000000	0.00000000000000	0.00000000000000	0.00000000000000	0.00000000000000	0.00000000000000	0.00000000000000	0.00000000000000	15.84809900000000	0.00000000000000	0.00000000000000	0.00000000000000	0.00000000000000	
3.09501000000000	-14.64203600000000	724.18193099999996	38.79902400000000	0.13887500000000	0.00000000000000	0.10373800000000	0.00000000000000	0.00000000000000	0.00000000000000	0.00000000000000	0.00000000000000	0.00000000000000	0.00000000000000	15.97261100000000	0.00000000000000	0.00000000000000	0.00000000000000	0.00000000000000	
3.09665800000000	-15.50688700000000	726.17637700000000	38.80223700000000	0.13759100000000	0.00000000000000	0.10372400000000	0.00000000000000	0.00000000000000	0.00000000000000	0.00000000000000	0.00000000000000	0.00000000000000	0.00000000000000	16.10012900000000	0.00000000000000	0.00000000000000	0.00000000000000	0.00000000000000	
3.09832400000000	-16.37652100000000	728.20086800000001	38.81649200000000	0.13632500000000	0.00000000000000	0.10371100000000	0.00000000000000	0.00000000000000	0.00000000000000	0.00000000000000	0.00000000000000	0.00000000000000	0.00000000000000	16.23051500000000	0.00000000000000	0.00000000000000	0.00000000000000	0.00000000000000	
3.10001200000000	-17.25036900000000	730.25491799999998	38.84204700000000	0.13507900000000	0.00000000000000	0.10369900000000	0.00000000000000	0.00000000000000	0.00000000000000	0.00000000000000	0.00000000000000	0.00000000000000	0.00000000000000	16.36362300000000	0.00000000000000	0.00000000000000	0.00000000000000	0.00000000000000	
3.10165300000000	-18.12786100000000	732.33800399999996	38.87915000000000	0.13385300000000	0.00000000000000	0.10368900000000	0.00000000000000	0.00000000000000	0.00000000000000	0.00000000000000	0.00000000000000	0.00000000000000	0.00000000000000	16.49929900000000	0.00000000000000	0.00000000000000	0.00000000000000	0.00000000000000	
3.10331900000000	-19.00842400000000	734.44956700000000	38.92803300000000	0.13264800000000	0.00000000000000	0.10368100000000	0.00000000000000	0.00000000000000	0.00000000000000	0.00000000000000	0.00000000000000	0.00000000000000	0.00000000000000	16.63738100000000	0.00000000000000	0.00000000000000	0.00000000000000	0.00000000000000	
3.10500800000000	-19.89148700000000	736.58900200000005	38.98891600000000	0.13146400000000	0.00000000000000	0.10367300000000	0.00000000000000	0.00000000000000	0.00000000000000	0.00000000000000	0.00000000000000	0.00000000000000	0.00000000000000	16.77770100000000	0.00000000000000	0.00000000000000	0.00000000000000	0.00000000000000	
3.10665900000000	-20.77647900000000	738.75564999999995	39.06200300000000	0.13030200000000	0.00000000000000	0.10366700000000	0.00000000000000	0.00000000000000	0.00000000000000	0.00000000000000	0.00000000000000	0.00000000000000	0.00000000000000	16.92008500000000	0.00000000000000	0.00000000000000	0.00000000000000	0.00000000000000	
3.10832600000000	-21.66283400000000	740.94879500000002	39.14748500000000	0.12916200000000	0.00000000000000	0.10366200000000	0.00000000000000	0.00000000000000	0.00000000000000	0.00000000000000	0.00000000000000	0.00000000000000	0.00000000000000	17.06435300000000	0.00000000000000	0.00000000000000	0.00000000000000	0.00000000000000	
3.10999900000000	-22.54998500000000	743.16765699999996	39.24553300000000	0.12804300000000	0.00000000000000	0.10365900000000	0.00000000000000	0.00000000000000	0.00000000000000	0.00000000000000	0.00000000000000	0.00000000000000	0.00000000000000	17.21031900000000	0.00000000000000	0.00000000000000	0.00000000000000	0.00000000000000	
3.11165700000000	-23.43737300000000	745.41138500000000	39.35630300000000	0.12694600000000	0.00000000000000	0.10365700000000	0.00000000000000	0.00000000000000	0.00000000000000	0.00000000000000	0.00000000000000	0.00000000000000	0.00000000000000	17.35779000000000	0.00000000000000	0.00000000000000	0.00000000000000	0.00000000000000	
3.11332100000000	-24.32444100000000	747.67905299999995	39.47993300000000	0.12587000000000	0.00000000000000	0.10365700000000	0.00000000000000	0.00000000000000	0.00000000000000	0.00000000000000	0.00000000000000	0.00000000000000	0.00000000000000	17.50657300000000	0.00000000000000	0.00000000000000	0.00000000000000	0.00000000000000	
3.11499800000000	-25.21063800000000	749.96965299999999	39.61653800000000	0.12481500000000	0.00000000000000	0.10365700000000	0.00000000000000	0.00000000000000	0.00000000000000	0.00000000000000	0.00000000000000	0.00000000000000	0.00000000000000	17.65646600000000	0.00000000000000	0.00000000000000	0.00000000000000	0.00000000000000	
3.11665300000000	-26.09542000000000	752.28209100000004	39.76621700000000	0.12378100000000	0.00000000000000	0.10366000000000	0.00000000000000	0.00000000000000	0.00000000000000	0.00000000000000	0.00000000000000	0.00000000000000	0.00000000000000	17.80726500000000	0.00000000000000	0.00000000000000	0.00000000000000	0.00000000000000	
3.11831900000000	-26.97824800000000	754.61518300000000	39.92904400000000	0.12276600000000	0.00000000000000	0.10366300000000	0.00000000000000	0.00000000000000	0.00000000000000	0.00000000000000	0.00000000000000	0.00000000000000	0.00000000000000	17.95876300000000	0.00000000000000	0.00000000000000	0.00000000000000	0.00000000000000	
